<svg width="16" height="14" viewBox="0 0 16 14" fill="none" xmlns="http://www.w3.org/2000/svg">
<path d="M3.84 11V2.42H5.448L9.42 5.204H9.48L13.452 2.42H15.06V11H13.14V4.82L10.416 6.644V11H8.496V6.644L5.76 4.82V11H3.84Z" fill="url(#paint0_linear_4_8)"/>
<path d="M0.564 11.06L0.564 9.5L7.464 9.512C7.816 9.512 8.084 9.432 8.268 9.272C8.46 9.104 8.556 8.836 8.556 8.468C8.556 8.1 8.46 7.836 8.268 7.676C8.084 7.508 7.816 7.424 7.464 7.424H3.168C2.28 7.424 1.588 7.212 1.092 6.788C0.604 6.356 0.36 5.724 0.36 4.892C0.36 4.06 0.604 3.432 1.092 3.008C1.588 2.576 2.28 2.36 3.168 2.36L9.912 2.36V3.92L3.372 3.908C3.028 3.908 2.76 3.988 2.568 4.148C2.376 4.3 2.28 4.548 2.28 4.892C2.28 5.236 2.376 5.488 2.568 5.648C2.76 5.8 3.028 5.876 3.372 5.876H7.668C8.556 5.876 9.244 6.096 9.732 6.536C10.228 6.968 10.476 7.612 10.476 8.468C10.476 9.316 10.228 9.96 9.732 10.4C9.244 10.84 8.556 11.06 7.668 11.06H0.564Z" fill="url(#paint1_linear_4_8)"/>
<defs>
<linearGradient id="paint0_linear_4_8" x1="9.5" y1="0" x2="9.5" y2="14" gradientUnits="userSpaceOnUse">
<stop/>
<stop offset="0.515" stop-color="#B7B7B7"/>
<stop offset="1"/>
</linearGradient>
<linearGradient id="paint1_linear_4_8" x1="5.5" y1="0" x2="5.5" y2="14" gradientUnits="userSpaceOnUse">
<stop stop-color="white"/>
<stop offset="0.515" stop-color="#585858"/>
<stop offset="1" stop-color="white"/>
</linearGradient>
</defs>
</svg>
